<svg version="1.1" id="Layer_1" xmlns="http://www.w3.org/2000/svg" xmlns:xlink="http://www.w3.org/1999/xlink" x="0px" y="0px"
	 width="100%" viewBox="0 0 498 498" enable-background="new 0 0 498 498" xml:space="preserve">
<path fill="#0C8C69" opacity="1.000000" stroke="none" 
	d="
M0.999998,279.000000 
	C1.000000,260.645782 1.000000,242.291550 1.417034,223.530457 
	C2.192762,222.614014 2.780065,222.144028 2.876212,221.588974 
	C4.604899,211.609451 5.746670,201.493515 8.096662,191.665634 
	C10.729447,180.655090 13.670456,169.590576 17.899788,159.124329 
	C22.392654,148.005920 28.370039,137.463165 34.052593,126.858421 
	C37.717068,120.019806 41.620079,113.236374 46.138634,106.947273 
	C51.262138,99.816193 57.072639,93.161835 62.805874,86.490494 
	C68.449631,79.923264 73.836708,72.987312 80.296623,67.304688 
	C89.722610,59.012878 99.718536,51.286823 109.992004,44.059467 
	C126.099770,32.727695 143.608566,23.856283 162.097763,17.040514 
	C179.380966,10.669325 196.905502,5.212847 215.434067,3.674273 
	C218.012283,3.460183 220.480743,1.924105 223.000000,1.000001 
	C240.687561,1.000000 258.375122,1.000000 276.404175,1.332441 
	C277.065094,2.032916 277.341522,2.670135 277.710419,2.729140 
	C284.707794,3.848372 291.736145,4.782976 298.718628,5.984826 
	C328.072754,11.037361 355.149994,22.337059 380.584564,37.372406 
	C401.578491,49.782745 419.994476,65.707573 436.192291,83.922142 
	C444.148468,92.868904 451.769470,102.375328 457.919403,112.604141 
	C466.713104,127.230156 474.954529,142.346359 481.717255,157.994232 
	C489.673950,176.404724 494.747192,195.875977 497.072784,215.938797 
	C497.197998,217.019135 498.334320,217.982300 499.000000,219.000000 
	C499.000000,239.687561 499.000000,260.375122 498.587708,281.464294 
	C497.071472,287.585480 496.133392,293.342987 494.835083,299.018097 
	C489.048340,324.312897 480.790100,348.666931 467.944580,371.382904 
	C453.313354,397.256744 434.822052,419.823914 412.343781,439.287903 
	C398.305298,451.443817 383.121063,461.879242 366.788544,470.494751 
	C340.828461,484.188873 313.272675,493.301849 284.058197,497.096313 
	C283.302460,497.194489 282.683014,498.341919 282.000000,499.000000 
	C260.979095,499.000000 239.958206,499.000000 218.535706,498.587708 
	C217.461090,497.794617 216.828171,497.200867 216.108978,497.065430 
	C207.719009,495.485748 199.206497,494.416962 190.936066,492.367096 
	C160.438171,484.808228 132.245590,472.140564 106.446884,454.045990 
	C87.731979,440.919830 71.138641,425.474335 56.747349,407.914948 
	C42.261295,390.239990 30.073776,370.897522 21.211424,349.669922 
	C12.076381,327.789215 5.303767,305.268951 2.903319,281.565033 
	C2.811173,280.655121 1.658491,279.852570 0.999998,279.000000 
M226.314667,456.562714 
	C229.736725,457.563263 232.532883,456.637543 233.192245,453.024048 
	C234.112183,447.982513 234.450211,442.828888 234.870087,437.709473 
	C234.922958,437.064667 233.963196,436.336761 233.472610,435.647369 
	C232.894669,436.270294 231.901764,436.836884 231.808212,437.525604 
	C231.317352,441.139191 230.980728,444.778656 230.733200,448.418854 
	C230.500000,451.848511 229.794632,454.890961 225.131592,456.244354 
	C222.712036,454.439545 221.553787,452.265259 222.121719,449.049164 
	C222.418716,447.367218 222.037567,445.349121 221.343704,443.751709 
	C219.671432,439.901825 216.311935,439.156769 212.590088,440.071075 
	C209.145065,440.917358 206.819992,445.347076 207.621490,449.306183 
	C208.290009,452.608398 210.040436,454.755463 214.806625,454.612335 
	C213.498016,453.480438 212.495621,453.035034 212.444458,452.498840 
	C212.167206,449.593384 211.821030,446.624695 212.203461,443.772339 
	C212.306625,443.002991 214.866516,442.563080 216.298721,441.971954 
	C217.195755,444.414459 218.885910,446.872772 218.837585,449.296448 
	C218.705261,455.935425 214.902496,460.036804 208.231949,461.843872 
	C211.005402,462.015930 214.066971,462.209625 215.687378,460.775299 
	C218.777451,458.040070 221.844131,455.937927 226.314667,456.562714 
M250.407120,69.679077 
	C261.140625,70.142761 267.501984,60.889370 264.204132,49.612274 
	C257.360107,50.695034 257.383057,55.839535 258.205383,61.077316 
	C255.132721,61.077316 252.806503,61.114029 250.482010,61.066502 
	C248.361572,61.023144 246.242981,60.888470 244.418304,60.807178 
	C243.809280,57.458057 243.552658,54.773804 242.812210,52.230400 
	C241.075699,46.265598 235.485840,43.494926 229.874954,45.608986 
	C223.830719,47.886330 219.917969,56.079800 222.210983,61.657608 
	C224.054520,66.142021 230.173370,67.208176 236.119598,64.088417 
	C236.620468,63.825630 237.147903,63.613522 238.197784,63.133224 
	C237.473007,69.775665 241.386887,70.351006 246.011642,69.997749 
	C246.673630,69.947197 247.334351,69.879982 248.564987,69.834999 
	C249.038895,69.569359 249.512787,69.303719 250.407120,69.679077 
M445.462860,113.053864 
	C445.307343,112.833389 445.151825,112.612915 444.163971,112.147911 
	C439.729950,111.047142 436.747742,112.820770 434.202759,116.487083 
	C431.277863,120.700729 427.839172,124.557709 424.586853,128.615524 
	C418.504944,124.583328 413.276184,120.808662 415.086334,111.951874 
	C416.878937,103.180862 411.090179,98.849358 402.414886,101.885483 
	C398.035339,103.418213 393.983643,106.028572 389.481079,102.438286 
	C387.791992,101.091461 386.039459,99.824226 384.447052,98.619926 
	C385.293976,97.063034 386.127075,95.531593 386.812134,93.298729 
	C385.966461,93.459206 385.120758,93.619675 383.466858,93.831306 
	C379.174194,93.310814 374.551636,93.582649 370.708557,91.982414 
	C368.275299,90.969215 367.185089,87.651123 368.825836,83.820213 
	C372.235870,75.858192 369.044037,69.727516 361.820648,68.547714 
	C356.688232,67.709435 350.807648,71.002068 348.362854,76.055656 
	C346.473114,79.961922 347.255554,83.442207 350.884369,85.555351 
	C353.595551,87.134155 356.879944,87.728622 358.857330,88.402809 
	C359.600769,91.080040 359.527435,94.484238 360.971436,95.346062 
	C365.802002,98.229050 371.175140,100.202888 376.391449,102.547821 
	C377.473511,107.607841 384.279449,106.781403 386.879028,110.652710 
	C384.684784,113.068588 382.582489,115.383247 380.480194,117.697899 
	C380.920502,118.114105 381.360779,118.530319 381.801086,118.946526 
	C384.593353,116.984871 387.385620,115.023209 390.336823,112.949913 
	C392.015503,114.183708 393.586334,115.374657 395.194122,116.513474 
	C401.114838,120.707222 407.047791,124.883667 413.310333,129.368515 
	C413.524445,129.579544 413.724976,129.802795 413.898254,130.763824 
	C417.815460,137.093445 425.198395,136.035812 428.843689,132.060699 
	C434.438843,125.959236 439.701172,119.552567 445.462860,113.053864 
M93.385094,202.987640 
	C85.386292,229.340256 84.214180,256.206177 89.514824,283.018951 
	C107.145164,372.200073 195.012299,434.318085 291.723663,410.436066 
	C368.681885,391.431885 427.403046,316.889618 413.561127,225.455627 
	C399.401398,131.922409 308.635223,67.357239 211.433899,91.396248 
	C152.226089,106.039032 113.196701,144.322647 93.385094,202.987640 
M148.754303,72.228386 
	C149.020493,75.089417 149.286682,77.950447 149.601501,81.334106 
	C149.682236,81.282646 149.142029,81.623001 148.605682,81.969376 
	C145.012512,84.289856 139.624268,85.557579 139.997894,90.887070 
	C140.469666,97.616295 136.163559,100.987015 132.281296,104.973587 
	C131.159149,106.125885 130.439606,107.670250 129.309326,109.376259 
	C138.983322,110.721611 142.660263,107.595497 144.950912,98.093071 
	C145.605499,95.377563 147.451462,92.000458 149.736374,90.796425 
	C158.143936,86.366035 167.010895,82.882622 176.422989,80.979683 
	C181.626816,79.927574 184.970093,75.452522 183.657608,70.249863 
	C181.485855,61.641026 178.581345,53.217045 175.923096,44.510521 
	C171.436142,48.069302 170.503983,51.632954 172.895523,56.513210 
	C175.180099,61.175167 176.551773,66.284485 178.392944,71.386185 
	C173.810089,72.740494 169.927872,73.887756 165.801666,75.107117 
	C164.853333,69.876831 164.762909,64.192963 157.924149,63.921780 
	C152.875244,63.721573 149.910278,66.563919 148.754303,72.228386 
M295.025146,52.592121 
	C293.693817,56.328991 292.362488,60.065861 290.831818,64.362244 
	C288.422729,64.017380 284.729126,63.488636 281.014709,62.956917 
	C281.510345,53.858932 281.965088,45.511181 282.439117,36.809353 
	C277.544617,38.235512 275.389801,40.518539 275.360840,45.165134 
	C275.315247,52.482067 274.706024,59.800198 274.182739,67.106888 
	C273.999146,69.670235 274.437500,71.133301 277.423859,71.405006 
	C285.850586,72.171715 294.281647,72.995712 302.658264,74.172295 
	C308.220062,74.953506 310.547668,72.395042 311.199646,67.372986 
	C300.532532,65.133018 299.408691,64.193123 299.115112,56.596432 
	C301.736359,57.583336 304.113159,58.478214 306.844635,59.506615 
	C308.009979,57.617588 309.258942,55.593063 310.474823,53.622150 
	C303.147461,48.146759 300.655457,47.936497 295.025146,52.592121 
M25.595932,249.957932 
	C24.456852,250.208191 23.317772,250.458435 22.895033,250.551315 
	C27.888456,252.654114 34.269653,253.686829 38.010544,257.388123 
	C41.655334,260.994324 42.598900,267.330688 44.109165,270.974274 
	C46.007973,266.867737 47.271267,260.553802 51.085251,256.908691 
	C54.794514,253.363678 61.117462,252.553436 67.314507,250.145279 
	C52.502079,250.287140 45.099686,243.323776 44.694283,229.023682 
	C43.901497,230.270264 43.320702,231.290070 43.235695,232.349640 
	C42.394646,242.833389 36.827057,248.699203 25.595932,249.957932 
M446.177338,248.964294 
	C443.541412,249.523575 440.905487,250.082840 438.269531,250.642120 
	C452.336853,251.519318 459.440613,258.991943 460.272858,273.390930 
	C461.054596,258.571533 468.692383,251.675613 482.685974,251.721375 
	C476.872223,249.347549 470.487396,248.388565 466.718048,244.732849 
	C463.030212,241.156219 462.008484,234.830643 459.839722,229.765945 
	C458.341583,237.636093 457.494446,246.573395 446.177338,248.964294 
M67.570755,123.099358 
	C67.892082,125.053726 68.024300,127.063110 68.573570,128.951172 
	C69.765511,133.048218 72.245667,136.301392 76.683258,136.689514 
	C81.199211,137.084457 84.598114,134.488571 86.864487,130.729095 
	C89.794334,125.869049 87.283768,118.843292 81.062134,116.478981 
	C76.281883,114.662407 70.956535,114.280235 64.379173,112.960274 
	C65.836456,117.220818 66.696030,119.733894 67.570755,123.099358 
M194.137527,64.384392 
	C194.772491,66.960938 195.555847,69.511864 196.006180,72.120285 
	C196.617142,75.658951 198.346924,75.967941 201.480331,74.194016 
	C198.256439,60.951519 195.052582,47.791267 191.776657,34.335026 
	C190.016144,34.825619 188.683716,35.196926 187.224487,35.603561 
	C189.548309,45.196030 191.773697,54.382168 194.137527,64.384392 
M331.950745,46.470997 
	C332.051270,43.855389 335.581177,39.649834 328.713074,39.961792 
	C325.456268,52.378826 322.134949,64.695549 319.133728,77.089775 
	C318.871094,78.174400 320.709778,79.767845 321.572449,81.124954 
	C322.035797,80.893753 322.499146,80.662544 322.962494,80.431343 
	C325.896606,69.379669 328.830719,58.328003 331.950745,46.470997 
M110.857353,96.664192 
	C113.307526,100.392838 115.757690,104.121483 118.321686,108.023338 
	C119.802940,106.931900 120.922371,106.107063 122.160683,105.194641 
	C114.475441,93.543777 107.016151,82.235451 99.437729,70.746521 
	C97.950302,71.802055 96.899887,72.547470 95.585396,73.480286 
	C100.619370,81.135033 105.530746,88.603355 110.857353,96.664192 
M298.058075,436.440125 
	C298.958282,439.453339 300.161316,442.417572 300.659576,445.495850 
	C301.034302,447.810852 300.504639,450.272186 300.347382,453.238342 
	C307.347260,450.914734 315.198059,448.308655 322.213562,445.979858 
	C320.862213,444.004730 319.154297,442.147949 318.186279,439.963318 
	C316.029877,435.096832 312.577698,433.220306 307.436249,434.799103 
	C305.607849,435.360596 303.888000,436.275726 301.867004,437.136627 
	C301.279816,435.418091 300.894226,433.809204 300.166290,432.373962 
	C299.832886,431.716675 298.826080,431.400970 298.124664,430.930328 
	C297.797119,431.709961 297.246582,432.478088 297.205566,433.272522 
	C297.165619,434.046173 297.647156,434.846771 298.058075,436.440125 
M176.554764,436.805634 
	C176.407318,434.728424 177.068146,431.809570 175.953674,430.739288 
	C173.143814,428.040680 169.534042,426.174988 166.061584,423.852936 
	C167.661545,418.590088 167.661545,418.590088 165.002075,417.552216 
	C163.363327,421.340271 161.655411,425.109467 160.099731,428.940491 
	C158.841248,432.039734 158.221054,435.654358 153.476624,436.085938 
	C161.211456,439.013794 168.946289,441.941681 176.233734,444.700195 
	C176.233734,442.335144 176.233734,439.935272 176.554764,436.805634 
M100.673485,129.875916 
	C97.837296,133.176331 100.767517,133.704468 102.712189,134.887451 
	C109.428009,126.381828 110.609993,116.303253 105.090523,109.332039 
	C102.267357,105.766319 98.145828,103.228592 94.242065,99.912773 
	C93.009048,102.372566 92.446053,103.495712 91.903702,104.577690 
	C105.101860,113.302467 106.835007,118.119843 100.673485,129.875916 
M196.652832,451.322113 
	C198.488892,450.052582 200.915207,449.155579 202.011215,447.419006 
	C203.374359,445.259186 203.768677,442.432434 204.300293,439.836151 
	C204.465927,439.027313 203.719162,438.031616 203.390076,437.121460 
	C202.655380,437.815521 201.566406,438.378784 201.252853,439.228302 
	C200.334747,441.715607 199.950546,444.416077 198.888382,446.826508 
	C198.441681,447.840271 196.818024,448.335388 195.729401,449.066284 
	C195.256821,447.835114 194.209839,446.494781 194.419159,445.393188 
	C195.052582,442.059753 196.173126,438.818909 197.103851,435.541962 
	C196.643478,435.248108 196.183105,434.954254 195.722748,434.660431 
	C194.888916,435.584595 193.712479,436.375519 193.290619,437.459961 
	C192.330505,439.927979 191.935349,442.623230 190.897766,445.049622 
	C190.522217,445.927826 188.969040,446.302429 187.953232,446.906860 
	C187.417236,445.845032 186.333328,444.714935 186.455353,443.735046 
	C186.739594,441.452332 187.777328,439.271576 188.168289,436.990936 
	C188.398224,435.649628 187.974396,434.196259 187.844635,432.793274 
	C186.939346,433.895416 185.700851,434.863159 185.191925,436.125122 
	C183.731339,439.746887 184.374725,444.638641 177.707550,445.516968 
	C184.598892,447.671661 190.255905,449.440430 196.652832,451.322113 
M346.186371,422.165924 
	C339.000458,420.375702 333.880432,424.639496 335.498779,430.936829 
	C336.305786,434.077148 336.708862,437.321259 337.220764,440.115173 
	C342.827301,437.370422 349.318573,434.192535 354.980164,431.420837 
	C353.191101,429.565643 351.422211,427.772766 349.703278,425.933258 
	C348.694092,424.853333 347.764282,423.699280 346.186371,422.165924 
M288.710266,440.294525 
	C285.051117,439.190704 280.989502,439.313690 279.512878,442.892517 
	C278.192078,446.093719 278.939270,450.148193 278.741943,454.540009 
	C278.510315,454.635773 277.029694,455.247864 275.549042,455.859985 
	C275.675842,456.274658 275.802643,456.689362 275.929443,457.104034 
	C282.933838,455.911469 289.938232,454.718933 296.942627,453.526398 
	C296.881561,453.072449 296.820496,452.618530 296.759430,452.164581 
	C295.356812,452.014465 293.954193,451.864349 292.517273,451.710571 
	C293.564056,447.289581 293.056000,443.552246 288.710266,440.294525 
M131.235535,419.725891 
	C127.338715,424.640900 126.966133,428.310883 129.959534,432.294983 
	C132.989090,436.327209 139.211609,438.512939 143.284103,436.807983 
	C146.071945,435.640808 148.752411,434.217163 151.568298,432.866211 
	C149.156494,431.501068 146.304108,429.886505 143.451706,428.271973 
	C145.674667,432.611969 143.122528,434.578522 140.316147,434.624969 
	C137.680969,434.668579 134.299164,433.441284 132.591888,431.554932 
	C131.273804,430.098633 131.100388,426.233093 132.127945,424.394104 
	C133.268539,422.352783 136.240204,421.152100 138.634354,420.072876 
	C139.780762,419.556091 141.434052,420.163788 142.857773,420.262207 
	C139.236206,417.004883 135.550354,416.838776 131.235535,419.725891 
M255.250412,447.226410 
	C254.554947,453.736694 256.831573,457.846497 261.752838,457.858276 
	C265.652618,457.867645 269.554779,456.890167 272.578552,456.472137 
	C271.718903,454.335999 270.510986,452.220184 270.037018,449.951080 
	C269.308960,446.465424 268.139404,443.523773 264.352875,442.604767 
	C260.498352,441.669250 257.518127,442.941620 255.250412,447.226410 
M264.755890,41.379707 
	C262.844330,38.931034 260.932739,36.482361 259.021179,34.033699 
	C256.666046,36.057018 254.240128,38.005974 251.993729,40.143562 
	C251.196335,40.902344 250.645386,42.066147 250.339462,43.146320 
	C250.119003,43.924664 250.490479,44.870659 250.597946,45.741863 
	C251.543442,45.481651 252.777649,45.507614 253.376312,44.903629 
	C254.764648,43.502949 255.845901,41.797859 257.387909,39.775074 
	C258.782684,42.036137 259.698395,43.520657 260.852020,45.390797 
	C262.138916,44.219650 263.324097,43.141041 264.755890,41.379707 
M312.223633,95.641251 
	C314.680084,95.780151 317.146667,96.107277 319.588501,95.975319 
	C320.739594,95.913116 321.843048,94.969696 322.968109,94.425591 
	C321.978119,93.927528 320.834259,93.602509 320.034027,92.891029 
	C318.821075,91.812607 317.847076,90.465477 316.771545,89.232506 
	C318.126221,88.668991 319.491364,88.128983 320.831757,87.533264 
	C321.655243,87.167259 322.440857,86.716057 323.626099,86.106262 
	C317.957886,82.789566 313.837799,84.313393 313.468140,89.043861 
	C313.316071,90.989944 312.527222,92.886269 312.223633,95.641251 
M359.090240,429.629486 
	C361.633087,427.653809 362.581665,425.252808 360.886505,422.278656 
	C358.597137,418.261963 356.327881,414.227173 353.832245,410.339966 
	C353.301910,409.513855 351.834686,409.289246 350.799103,408.787537 
	C350.536743,409.204346 350.274384,409.621185 350.012024,410.037994 
	C351.242889,412.155487 352.607971,414.207703 353.675934,416.404358 
	C355.733521,420.636505 360.359406,424.172241 357.522461,429.816101 
	C357.832794,429.875427 358.143097,429.934784 359.090240,429.629486 
M239.119019,452.407959 
	C239.119019,454.210175 239.119019,456.012360 239.119019,457.814575 
	C240.807388,457.575623 241.963104,456.829773 242.144073,455.895172 
	C244.005157,446.283356 243.296005,437.560394 240.200287,435.997894 
	C239.844147,441.285919 239.501572,446.372681 239.119019,452.407959 
M362.812836,408.686859 
	C360.970215,407.645416 361.385071,402.572418 356.905304,405.559906 
	C360.506317,411.126770 363.939453,416.544647 367.533752,421.853455 
	C367.993378,422.532288 369.292419,422.642822 370.202576,423.016632 
	C370.194550,422.043243 370.549286,420.851990 370.117554,420.133087 
	C367.910553,416.458466 365.500671,412.905731 362.812836,408.686859 
M228.224884,38.546314 
	C227.622604,39.587910 227.020325,40.629501 226.167694,42.104069 
	C231.814682,41.659199 237.690155,43.472832 240.258469,35.407677 
	C235.934113,36.364929 232.328766,37.163025 228.224884,38.546314 
M155.674240,54.266911 
	C151.869217,55.875458 147.197540,56.657925 147.810440,62.501091 
	C157.404251,60.202766 158.138916,59.592690 158.707916,53.339806 
	C157.903717,53.576889 157.145111,53.800533 155.674240,54.266911 
M326.101471,438.382660 
	C325.867157,440.552521 325.632843,442.722412 325.408234,444.802307 
	C328.217773,443.623779 331.154694,442.391846 335.366150,440.625244 
	C328.414612,440.323822 328.937592,435.159576 327.002563,431.828857 
	C326.312744,430.641479 325.124725,429.743561 324.164124,428.713501 
	C323.734314,429.085480 323.304474,429.457458 322.874664,429.829407 
	C323.881897,432.436035 324.889160,435.042633 326.101471,438.382660 
M373.402527,64.077850 
	C369.137115,62.410355 364.965424,58.671818 360.291016,63.756081 
	C362.960419,65.004051 365.537811,66.630836 368.349609,67.393555 
	C370.710876,68.034058 373.641632,68.221870 373.402527,64.077850 
M384.738007,86.810318 
	C386.004700,91.911331 389.215820,88.691093 393.059967,88.946823 
	C391.118927,86.649475 390.190338,84.628166 388.745026,84.141647 
	C387.655884,83.775017 385.904938,85.374481 384.738007,86.810318 
M301.194397,44.564850 
	C303.932190,48.790134 306.121765,45.532223 308.999298,44.269100 
	C307.650970,42.618893 306.641541,41.383492 305.036072,39.418587 
	C303.466095,41.123241 302.147247,42.555206 301.194397,44.564850 
M396.756256,125.212029 
	C396.882812,123.539177 397.009399,121.866325 397.137451,120.173813 
	C394.524536,120.173813 392.738556,120.173813 391.019440,120.173813 
	C390.281708,124.439316 392.148071,125.881950 396.756256,125.212029 
M60.294456,111.433891 
	C61.675842,109.140015 60.967297,107.351402 58.473457,107.116951 
	C57.505119,107.025909 56.352081,108.899551 55.283180,109.878212 
	C56.781361,110.568596 58.279537,111.258980 60.294456,111.433891 
M65.149147,106.947784 
	C65.331642,105.334969 65.514137,103.722153 65.696625,102.109329 
	C64.284737,102.489372 62.872849,102.869408 61.460964,103.249451 
	C62.443161,104.535942 63.425354,105.822441 65.149147,106.947784 
z"/>
<path fill="#000000" opacity="1.000000" stroke="none" 
	d="
M222.531342,1.000001 
	C220.480743,1.924105 218.012283,3.460183 215.434067,3.674273 
	C196.905502,5.212847 179.380966,10.669325 162.097763,17.040514 
	C143.608566,23.856283 126.099770,32.727695 109.992004,44.059467 
	C99.718536,51.286823 89.722610,59.012878 80.296623,67.304688 
	C73.836708,72.987312 68.449631,79.923264 62.805874,86.490494 
	C57.072639,93.161835 51.262138,99.816193 46.138634,106.947273 
	C41.620079,113.236374 37.717068,120.019806 34.052593,126.858421 
	C28.370039,137.463165 22.392654,148.005920 17.899788,159.124329 
	C13.670456,169.590576 10.729447,180.655090 8.096662,191.665634 
	C5.746670,201.493515 4.604899,211.609451 2.876212,221.588974 
	C2.780065,222.144028 2.192762,222.614014 1.417034,223.061798 
	C1.000000,149.072952 1.000000,75.145920 1.000000,1.000000 
	C74.687416,1.000000 148.375046,1.000000 222.531342,1.000001 
z"/>
<path fill="#000000" opacity="1.000000" stroke="none" 
	d="
M499.000000,218.531342 
	C498.334320,217.982300 497.197998,217.019135 497.072784,215.938797 
	C494.747192,195.875977 489.673950,176.404724 481.717255,157.994232 
	C474.954529,142.346359 466.713104,127.230156 457.919403,112.604141 
	C451.769470,102.375328 444.148468,92.868904 436.192291,83.922142 
	C419.994476,65.707573 401.578491,49.782745 380.584564,37.372406 
	C355.149994,22.337059 328.072754,11.037361 298.718628,5.984826 
	C291.736145,4.782976 284.707794,3.848372 277.710419,2.729140 
	C277.341522,2.670135 277.065094,2.032916 276.872803,1.332441 
	C350.926361,1.000000 424.852753,1.000000 499.000000,1.000000 
	C499.000000,73.354080 499.000000,145.708374 499.000000,218.531342 
z"/>
<path fill="#000000" opacity="1.000000" stroke="none" 
	d="
M0.999998,279.468658 
	C1.658491,279.852570 2.811173,280.655121 2.903319,281.565033 
	C5.303767,305.268951 12.076381,327.789215 21.211424,349.669922 
	C30.073776,370.897522 42.261295,390.239990 56.747349,407.914948 
	C71.138641,425.474335 87.731979,440.919830 106.446884,454.045990 
	C132.245590,472.140564 160.438171,484.808228 190.936066,492.367096 
	C199.206497,494.416962 207.719009,495.485748 216.108978,497.065430 
	C216.828171,497.200867 217.461090,497.794617 218.067047,498.587708 
	C145.739136,499.000000 73.478271,499.000000 1.000000,499.000000 
	C1.000000,425.979248 1.000000,352.958282 0.999998,279.468658 
z"/>
<path fill="#000000" opacity="1.000000" stroke="none" 
	d="
M282.468658,499.000000 
	C282.683014,498.341919 283.302460,497.194489 284.058197,497.096313 
	C313.272675,493.301849 340.828461,484.188873 366.788544,470.494751 
	C383.121063,461.879242 398.305298,451.443817 412.343781,439.287903 
	C434.822052,419.823914 453.313354,397.256744 467.944580,371.382904 
	C480.790100,348.666931 489.048340,324.312897 494.835083,299.018097 
	C496.133392,293.342987 497.071472,287.585480 498.587708,281.932953 
	C499.000000,354.260376 499.000000,426.520721 499.000000,499.000000 
	C426.979248,499.000000 354.958282,499.000000 282.468658,499.000000 
z"/>
<path fill="#FEFEFE" opacity="1.000000" stroke="none" 
	d="
M93.538048,202.617050 
	C113.196701,144.322647 152.226089,106.039032 211.433899,91.396248 
	C308.635223,67.357239 399.401398,131.922409 413.561127,225.455627 
	C427.403046,316.889618 368.681885,391.431885 291.723663,410.436066 
	C195.012299,434.318085 107.145164,372.200073 89.514824,283.018951 
	C84.214180,256.206177 85.386292,229.340256 93.538048,202.617050 
M275.362701,383.981842 
	C276.986847,383.630096 278.612671,383.285736 280.234924,382.925476 
	C341.497162,369.320801 382.958893,315.666931 385.579193,260.054108 
	C386.751434,235.173782 383.001617,211.370483 371.233185,189.116913 
	C369.893280,186.583191 368.563110,185.607864 365.535492,185.765762 
	C346.310059,186.768387 328.640289,192.854111 312.266632,202.508896 
	C284.970459,218.604156 265.924805,242.067154 253.109589,270.816681 
	C252.500687,272.182709 251.887039,273.546631 251.248734,274.971527 
	C246.368866,266.048798 242.308975,257.436951 237.156372,249.537888 
	C231.995285,241.625824 226.322403,233.880814 219.864197,227.011871 
	C197.395599,203.114090 170.165237,188.423355 136.975327,185.805206 
	C133.582733,185.537582 131.985748,186.549133 130.490143,189.507202 
	C116.973007,216.241867 113.011993,244.378799 117.803902,273.830261 
	C129.094940,343.226013 195.575241,397.453491 275.362701,383.981842 
M215.300156,146.755341 
	C233.493027,140.497055 252.092270,139.207916 270.958160,142.664413 
	C295.201294,147.106094 315.493469,158.801422 332.306549,176.736023 
	C333.308380,177.804703 335.161835,179.080719 336.318878,178.836746 
	C344.517059,177.108078 352.636841,175.007629 361.432251,172.867371 
	C330.438293,132.353729 290.097168,112.507698 239.477127,116.383057 
	C198.043106,119.555161 165.402161,139.367661 140.525558,172.880692 
	C149.330276,175.022980 157.179794,177.078674 165.115204,178.718887 
	C166.424896,178.989609 168.510437,177.810516 169.561935,176.675613 
	C182.145157,163.094299 197.131638,153.214600 215.300156,146.755341 
M263.551697,178.782089 
	C251.465118,172.759140 240.085266,174.772797 232.086304,184.349869 
	C225.228317,192.560852 224.758682,205.449860 231.197693,214.018326 
	C237.378464,222.243164 245.872879,225.607681 255.800690,223.617477 
	C265.741913,221.624573 272.544128,215.256180 274.674011,205.216965 
	C276.954803,194.466461 273.377075,185.559616 263.551697,178.782089 
z"/>
<path fill="#F8FBFA" opacity="1.000000" stroke="none" 
	d="
M412.976166,129.066620 
	C407.047791,124.883667 401.114838,120.707222 395.194122,116.513474 
	C393.586334,115.374657 392.015503,114.183708 390.336823,112.949913 
	C387.385620,115.023209 384.593353,116.984871 381.801086,118.946526 
	C381.360779,118.530319 380.920502,118.114105 380.480194,117.697899 
	C382.582489,115.383247 384.684784,113.068588 386.879028,110.652710 
	C384.279449,106.781403 377.473511,107.607841 376.391449,102.547821 
	C371.175140,100.202888 365.802002,98.229050 360.971436,95.346062 
	C359.527435,94.484238 359.600769,91.080040 358.857330,88.402809 
	C356.879944,87.728622 353.595551,87.134155 350.884369,85.555351 
	C347.255554,83.442207 346.473114,79.961922 348.362854,76.055656 
	C350.807648,71.002068 356.688232,67.709435 361.820648,68.547714 
	C369.044037,69.727516 372.235870,75.858192 368.825836,83.820213 
	C367.185089,87.651123 368.275299,90.969215 370.708557,91.982414 
	C374.551636,93.582649 379.174194,93.310814 384.318665,93.854797 
	C385.766998,93.918907 386.363586,93.959534 386.960144,94.000153 
	C386.127075,95.531593 385.293976,97.063034 384.447052,98.619926 
	C386.039459,99.824226 387.791992,101.091461 389.481079,102.438286 
	C393.983643,106.028572 398.035339,103.418213 402.414886,101.885483 
	C411.090179,98.849358 416.878937,103.180862 415.086334,111.951874 
	C413.276184,120.808662 418.504944,124.583328 424.586853,128.615524 
	C427.839172,124.557709 431.277863,120.700729 434.202759,116.487083 
	C436.747742,112.820770 439.729950,111.047142 444.602478,112.491501 
	C445.041016,112.835091 445.104767,113.275421 445.104767,113.275421 
	C439.701172,119.552567 434.438843,125.959236 428.843689,132.060699 
	C425.198395,136.035812 417.815460,137.093445 414.084412,130.222931 
	C414.307007,129.127777 414.343414,128.573502 414.379852,128.019226 
	C413.911957,128.368347 413.444061,128.717484 412.976166,129.066620 
M361.705750,76.981178 
	C359.341431,76.586487 356.977142,76.191803 354.612823,75.797112 
	C354.416260,76.538643 354.219696,77.280167 354.023102,78.021698 
	C355.905914,79.016792 357.690216,80.366348 359.694733,80.923531 
	C362.668915,81.750229 363.803741,80.553215 361.705750,76.981178 
M402.466003,111.127884 
	C403.782745,112.061737 405.099457,112.995590 406.540863,114.017853 
	C407.312164,107.874519 404.982758,106.189545 399.159729,108.507782 
	C400.112061,109.285851 400.996704,110.008636 402.466003,111.127884 
z"/>
<path fill="#F8FCFB" opacity="1.000000" stroke="none" 
	d="
M148.821548,71.846710 
	C149.910278,66.563919 152.875244,63.721573 157.924149,63.921780 
	C164.762909,64.192963 164.853333,69.876831 165.801666,75.107117 
	C169.927872,73.887756 173.810089,72.740494 178.392944,71.386185 
	C176.551773,66.284485 175.180099,61.175167 172.895523,56.513210 
	C170.503983,51.632954 171.436142,48.069302 175.923096,44.510521 
	C178.581345,53.217045 181.485855,61.641026 183.657608,70.249863 
	C184.970093,75.452522 181.626816,79.927574 176.422989,80.979683 
	C167.010895,82.882622 158.143936,86.366035 149.736374,90.796425 
	C147.451462,92.000458 145.605499,95.377563 144.950912,98.093071 
	C142.660263,107.595497 138.983322,110.721611 129.309326,109.376259 
	C130.439606,107.670250 131.159149,106.125885 132.281296,104.973587 
	C136.163559,100.987015 140.469666,97.616295 139.997894,90.887070 
	C139.624268,85.557579 145.012512,84.289856 148.605682,81.969376 
	C149.142029,81.623001 149.682236,81.282646 149.601501,81.334106 
	C149.286682,77.950447 149.020493,75.089417 148.821548,71.846710 
M171.852463,77.117607 
	C172.148254,76.994347 172.444031,76.871086 172.739822,76.747826 
	C172.607147,76.553123 172.474472,76.358421 172.341797,76.163712 
	C172.169785,76.368858 171.997787,76.573997 171.852463,77.117607 
z"/>
<path fill="#F6FBFA" opacity="1.000000" stroke="none" 
	d="
M295.286591,52.322876 
	C300.655457,47.936497 303.147461,48.146759 310.474823,53.622150 
	C309.258942,55.593063 308.009979,57.617588 306.844635,59.506615 
	C304.113159,58.478214 301.736359,57.583336 299.115112,56.596432 
	C299.408691,64.193123 300.532532,65.133018 311.199799,67.373184 
	C310.547668,72.395042 308.220062,74.953506 302.658264,74.172295 
	C294.281647,72.995712 285.850586,72.171715 277.423859,71.405006 
	C274.437500,71.133301 273.999146,69.670235 274.182739,67.106888 
	C274.706024,59.800198 275.315247,52.482067 275.360840,45.165134 
	C275.389801,40.518539 277.544617,38.235512 282.439117,36.809353 
	C281.965088,45.511181 281.510345,53.858932 281.014709,62.956917 
	C284.729126,63.488636 288.422729,64.017380 290.831818,64.362244 
	C292.362488,60.065861 293.693817,56.328991 295.286591,52.322876 
z"/>
<path fill="#F8FCFB" opacity="1.000000" stroke="none" 
	d="
M247.995651,69.820480 
	C247.334351,69.879982 246.673630,69.947197 246.011642,69.997749 
	C241.386887,70.351006 237.473007,69.775665 238.197784,63.133224 
	C237.147903,63.613522 236.620468,63.825630 236.119598,64.088417 
	C230.173370,67.208176 224.054520,66.142021 222.210983,61.657608 
	C219.917969,56.079800 223.830719,47.886330 229.874954,45.608986 
	C235.485840,43.494926 241.075699,46.265598 242.812210,52.230400 
	C243.552658,54.773804 243.809280,57.458057 244.418304,60.807178 
	C246.242981,60.888470 248.361572,61.023144 250.482010,61.066502 
	C252.806503,61.114029 255.132721,61.077316 258.205383,61.077316 
	C257.383057,55.839535 257.360107,50.695034 264.203491,49.611893 
	C267.501984,60.889370 261.140625,70.142761 250.179260,69.055298 
	C249.648529,67.929787 249.345673,67.428062 249.042831,66.926331 
	C248.693771,67.891045 248.344711,68.855759 247.995651,69.820480 
M234.352692,57.482372 
	C234.967361,56.740486 235.582016,55.998600 236.196686,55.256729 
	C235.065842,54.477345 233.776291,52.897209 232.836853,53.083416 
	C230.811798,53.484810 228.966690,54.793991 227.047943,55.731701 
	C227.238785,56.405952 227.429626,57.080208 227.620468,57.754459 
	C229.617905,57.754459 231.615356,57.754459 234.352692,57.482372 
z"/>
<path fill="#F5FAF9" opacity="1.000000" stroke="none" 
	d="
M25.973927,249.911926 
	C36.827057,248.699203 42.394646,242.833389 43.235695,232.349640 
	C43.320702,231.290070 43.901497,230.270264 44.694283,229.023682 
	C45.099686,243.323776 52.502079,250.287140 67.314507,250.145279 
	C61.117462,252.553436 54.794514,253.363678 51.085251,256.908691 
	C47.271267,260.553802 46.007973,266.867737 44.109165,270.974274 
	C42.598900,267.330688 41.655334,260.994324 38.010544,257.388123 
	C34.269653,253.686829 27.888456,252.654114 22.895033,250.551315 
	C23.317772,250.458435 24.456852,250.208191 25.973927,249.911926 
z"/>
<path fill="#F6FBF9" opacity="1.000000" stroke="none" 
	d="
M446.567566,248.887222 
	C457.494446,246.573395 458.341583,237.636093 459.839722,229.765945 
	C462.008484,234.830643 463.030212,241.156219 466.718048,244.732849 
	C470.487396,248.388565 476.872223,249.347549 482.685974,251.721375 
	C468.692383,251.675613 461.054596,258.571533 460.272858,273.390930 
	C459.440613,258.991943 452.336853,251.519318 438.269531,250.642120 
	C440.905487,250.082840 443.541412,249.523575 446.567566,248.887222 
z"/>
<path fill="#F1F8F6" opacity="1.000000" stroke="none" 
	d="
M67.563187,122.673157 
	C66.696030,119.733894 65.836456,117.220818 64.379173,112.960274 
	C70.956535,114.280235 76.281883,114.662407 81.062134,116.478981 
	C87.283768,118.843292 89.794334,125.869049 86.864487,130.729095 
	C84.598114,134.488571 81.199211,137.084457 76.683258,136.689514 
	C72.245667,136.301392 69.765511,133.048218 68.573570,128.951172 
	C68.024300,127.063110 67.892082,125.053726 67.563187,122.673157 
M78.968575,131.410172 
	C82.331345,129.832458 84.494347,127.528061 82.923889,123.586830 
	C81.463707,119.922310 76.643135,118.326317 71.483955,119.527443 
	C71.141151,127.283684 72.939476,130.509598 78.968575,131.410172 
z"/>
<path fill="#F1F8F6" opacity="1.000000" stroke="none" 
	d="
M194.068298,63.976349 
	C191.773697,54.382168 189.548309,45.196030 187.224487,35.603561 
	C188.683716,35.196926 190.016144,34.825619 191.776657,34.335026 
	C195.052582,47.791267 198.256439,60.951519 201.480331,74.194016 
	C198.346924,75.967941 196.617142,75.658951 196.006180,72.120285 
	C195.555847,69.511864 194.772491,66.960938 194.068298,63.976349 
z"/>
<path fill="#F1F9F7" opacity="1.000000" stroke="none" 
	d="
M331.857788,46.873665 
	C328.830719,58.328003 325.896606,69.379669 322.962494,80.431343 
	C322.499146,80.662544 322.035797,80.893753 321.572449,81.124954 
	C320.709778,79.767845 318.871094,78.174400 319.133728,77.089775 
	C322.134949,64.695549 325.456268,52.378826 328.713074,39.961792 
	C335.581177,39.649834 332.051270,43.855389 331.857788,46.873665 
z"/>
<path fill="#F1F8F6" opacity="1.000000" stroke="none" 
	d="
M110.649734,96.367935 
	C105.530746,88.603355 100.619370,81.135033 95.585396,73.480286 
	C96.899887,72.547470 97.950302,71.802055 99.437729,70.746521 
	C107.016151,82.235451 114.475441,93.543777 122.160683,105.194641 
	C120.922371,106.107063 119.802940,106.931900 118.321686,108.023338 
	C115.757690,104.121483 113.307526,100.392838 110.649734,96.367935 
z"/>
<path fill="#E5F3EF" opacity="1.000000" stroke="none" 
	d="
M297.978882,436.037842 
	C297.647156,434.846771 297.165619,434.046173 297.205566,433.272522 
	C297.246582,432.478088 297.797119,431.709961 298.124664,430.930328 
	C298.826080,431.400970 299.832886,431.716675 300.166290,432.373962 
	C300.894226,433.809204 301.279816,435.418091 301.867004,437.136627 
	C303.888000,436.275726 305.607849,435.360596 307.436249,434.799103 
	C312.577698,433.220306 316.029877,435.096832 318.186279,439.963318 
	C319.154297,442.147949 320.862213,444.004730 322.213562,445.979858 
	C315.198059,448.308655 307.347260,450.914734 300.347382,453.238342 
	C300.504639,450.272186 301.034302,447.810852 300.659576,445.495850 
	C300.161316,442.417572 298.958282,439.453339 297.978882,436.037842 
M306.169006,437.395233 
	C301.421143,441.209534 304.043213,445.195343 305.525116,449.230927 
	C313.394196,447.791107 315.965546,445.615265 314.926025,441.204102 
	C313.915344,436.915405 311.002106,435.782745 306.169006,437.395233 
z"/>
<path fill="#E7F4F0" opacity="1.000000" stroke="none" 
	d="
M176.394257,437.170532 
	C176.233734,439.935272 176.233734,442.335144 176.233734,444.700195 
	C168.946289,441.941681 161.211456,439.013794 153.476624,436.085938 
	C158.221054,435.654358 158.841248,432.039734 160.099731,428.940491 
	C161.655411,425.109467 163.363327,421.340271 165.002075,417.552216 
	C167.661545,418.590088 167.661545,418.590088 166.061584,423.852936 
	C169.534042,426.174988 173.143814,428.040680 175.953674,430.739288 
	C177.068146,431.809570 176.407318,434.728424 176.394257,437.170532 
M169.198120,439.316956 
	C172.882904,438.310913 174.791016,435.528473 173.601074,432.233124 
	C172.906937,430.310760 169.880066,428.077484 167.841919,428.016541 
	C162.390335,427.853485 162.159775,432.839478 160.522003,437.018799 
	C163.360291,437.897125 165.868088,438.673157 169.198120,439.316956 
z"/>
<path fill="#F1F8F6" opacity="1.000000" stroke="none" 
	d="
M100.843964,129.548660 
	C106.835007,118.119843 105.101860,113.302467 91.903702,104.577690 
	C92.446053,103.495712 93.009048,102.372566 94.242065,99.912773 
	C98.145828,103.228592 102.267357,105.766319 105.090523,109.332039 
	C110.609993,116.303253 109.428009,126.381828 102.712189,134.887451 
	C100.767517,133.704468 97.837296,133.176331 100.843964,129.548660 
z"/>
<path fill="#E9F5F2" opacity="1.000000" stroke="none" 
	d="
M196.282867,451.265656 
	C190.255905,449.440430 184.598892,447.671661 177.707550,445.516968 
	C184.374725,444.638641 183.731339,439.746887 185.191925,436.125122 
	C185.700851,434.863159 186.939346,433.895416 187.844635,432.793274 
	C187.974396,434.196259 188.398224,435.649628 188.168289,436.990936 
	C187.777328,439.271576 186.739594,441.452332 186.455353,443.735046 
	C186.333328,444.714935 187.417236,445.845032 187.953232,446.906860 
	C188.969040,446.302429 190.522217,445.927826 190.897766,445.049622 
	C191.935349,442.623230 192.330505,439.927979 193.290619,437.459961 
	C193.712479,436.375519 194.888916,435.584595 195.722748,434.660431 
	C196.183105,434.954254 196.643478,435.248108 197.103851,435.541962 
	C196.173126,438.818909 195.052582,442.059753 194.419159,445.393188 
	C194.209839,446.494781 195.256821,447.835114 195.729401,449.066284 
	C196.818024,448.335388 198.441681,447.840271 198.888382,446.826508 
	C199.950546,444.416077 200.334747,441.715607 201.252853,439.228302 
	C201.566406,438.378784 202.655380,437.815521 203.390076,437.121460 
	C203.719162,438.031616 204.465927,439.027313 204.300293,439.836151 
	C203.768677,442.432434 203.374359,445.259186 202.011215,447.419006 
	C200.915207,449.155579 198.488892,450.052582 196.282867,451.265656 
z"/>
<path fill="#E7F4F0" opacity="1.000000" stroke="none" 
	d="
M226.018875,455.720642 
	C221.844131,455.937927 218.777451,458.040070 215.687378,460.775299 
	C214.066971,462.209625 211.005402,462.015930 208.231949,461.843872 
	C214.902496,460.036804 218.705261,455.935425 218.837585,449.296448 
	C218.885910,446.872772 217.195755,444.414459 216.298721,441.971985 
	C214.866516,442.563080 212.306625,443.002991 212.203461,443.772339 
	C211.821030,446.624695 212.167206,449.593384 212.444458,452.498840 
	C212.495621,453.035034 213.498016,453.480438 214.806625,454.612335 
	C210.040436,454.755463 208.290009,452.608398 207.621490,449.306183 
	C206.819992,445.347076 209.145065,440.917358 212.590088,440.071075 
	C216.311935,439.156769 219.671432,439.901825 221.343704,443.751709 
	C222.037567,445.349121 222.418716,447.367218 222.121719,449.049164 
	C221.553787,452.265259 222.712036,454.439545 225.573715,456.103516 
	C226.015839,455.962677 226.018875,455.720642 226.018875,455.720642 
z"/>
<path fill="#E7F4F0" opacity="1.000000" stroke="none" 
	d="
M346.492554,422.372253 
	C347.764282,423.699280 348.694092,424.853333 349.703278,425.933258 
	C351.422211,427.772766 353.191101,429.565643 354.980164,431.420837 
	C349.318573,434.192535 342.827301,437.370422 337.220764,440.115173 
	C336.708862,437.321259 336.305786,434.077148 335.498779,430.936829 
	C333.880432,424.639496 339.000458,420.375702 346.492554,422.372253 
M338.159241,428.328491 
	C339.178833,430.170074 339.786713,432.659882 341.346680,433.650726 
	C342.622833,434.461304 346.128571,434.118896 346.688293,433.153168 
	C347.548462,431.669006 347.285553,428.940735 346.458374,427.249390 
	C345.725311,425.750458 343.586487,424.116058 342.043823,424.091705 
	C340.766785,424.071533 339.454071,426.312805 338.159241,428.328491 
z"/>
<path fill="#E9F5F2" opacity="1.000000" stroke="none" 
	d="
M289.047150,440.526154 
	C293.056000,443.552246 293.564056,447.289581 292.517273,451.710571 
	C293.954193,451.864349 295.356812,452.014465 296.759430,452.164581 
	C296.820496,452.618530 296.881561,453.072449 296.942627,453.526398 
	C289.938232,454.718933 282.933838,455.911469 275.929443,457.104034 
	C275.802643,456.689362 275.675842,456.274658 275.549042,455.859985 
	C277.029694,455.247864 278.510315,454.635773 278.741943,454.540009 
	C278.939270,450.148193 278.192078,446.093719 279.512878,442.892517 
	C280.989502,439.313690 285.051117,439.190704 289.047150,440.526154 
M288.139008,443.293365 
	C286.143524,443.307404 284.148071,443.321411 282.152588,443.335419 
	C282.250610,445.975830 281.859131,448.784058 282.679413,451.176849 
	C283.023834,452.181458 287.053741,453.190491 287.466278,452.666992 
	C288.722290,451.073425 289.201508,448.768555 289.625885,446.668396 
	C289.791199,445.850220 289.003601,444.839539 288.139008,443.293365 
z"/>
<path fill="#E7F4F0" opacity="1.000000" stroke="none" 
	d="
M131.519043,419.480896 
	C135.550354,416.838776 139.236206,417.004883 142.857773,420.262207 
	C141.434052,420.163788 139.780762,419.556091 138.634354,420.072876 
	C136.240204,421.152100 133.268539,422.352783 132.127945,424.394104 
	C131.100388,426.233093 131.273804,430.098633 132.591888,431.554932 
	C134.299164,433.441284 137.680969,434.668579 140.316147,434.624969 
	C143.122528,434.578522 145.674667,432.611969 143.451706,428.271973 
	C146.304108,429.886505 149.156494,431.501068 151.568298,432.866211 
	C148.752411,434.217163 146.071945,435.640808 143.284103,436.807983 
	C139.211609,438.512939 132.989090,436.327209 129.959534,432.294983 
	C126.966133,428.310883 127.338715,424.640900 131.519043,419.480896 
z"/>
<path fill="#EDF7F4" opacity="1.000000" stroke="none" 
	d="
M255.452820,446.884705 
	C257.518127,442.941620 260.498352,441.669250 264.352875,442.604767 
	C268.139404,443.523773 269.308960,446.465424 270.037018,449.951080 
	C270.510986,452.220184 271.718903,454.335999 272.578552,456.472137 
	C269.554779,456.890167 265.652618,457.867645 261.752838,457.858276 
	C256.831573,457.846497 254.554947,453.736694 255.452820,446.884705 
M265.784058,454.211212 
	C265.853760,451.831268 266.619049,449.142578 265.748016,447.180176 
	C265.169586,445.877014 261.654816,444.483917 260.493317,445.097565 
	C257.189026,446.843140 257.350128,450.262238 258.884918,453.285004 
	C260.289734,456.051758 262.501801,457.064941 265.784058,454.211212 
z"/>
<path fill="#F1F9F7" opacity="1.000000" stroke="none" 
	d="
M264.632599,41.721069 
	C263.324097,43.141041 262.138916,44.219650 260.852020,45.390797 
	C259.698395,43.520657 258.782684,42.036137 257.387909,39.775074 
	C255.845901,41.797859 254.764648,43.502949 253.376312,44.903629 
	C252.777649,45.507614 251.543442,45.481651 250.597931,45.741867 
	C250.490479,44.870659 250.119003,43.924664 250.339462,43.146320 
	C250.645386,42.066147 251.196335,40.902344 251.993729,40.143562 
	C254.240128,38.005974 256.666046,36.057018 259.021179,34.033691 
	C260.932739,36.482361 262.844330,38.931034 264.632599,41.721069 
z"/>
<path fill="#E5F3EF" opacity="1.000000" stroke="none" 
	d="
M226.166779,456.141663 
	C226.018875,455.720642 226.015839,455.962677 226.009033,456.020447 
	C229.794632,454.890961 230.500000,451.848511 230.733200,448.418854 
	C230.980728,444.778656 231.317352,441.139191 231.808212,437.525604 
	C231.901764,436.836884 232.894669,436.270294 233.472610,435.647369 
	C233.963196,436.336761 234.922958,437.064667 234.870087,437.709473 
	C234.450211,442.828888 234.112183,447.982513 233.192245,453.024048 
	C232.532883,456.637543 229.736725,457.563263 226.166779,456.141663 
z"/>
<path fill="#F4FAF8" opacity="1.000000" stroke="none" 
	d="
M312.125824,95.223236 
	C312.527222,92.886269 313.316071,90.989944 313.468140,89.043861 
	C313.837799,84.313393 317.957886,82.789566 323.626099,86.106262 
	C322.440857,86.716057 321.655243,87.167259 320.831757,87.533264 
	C319.491364,88.128983 318.126221,88.668991 316.771545,89.232513 
	C317.847076,90.465477 318.821075,91.812607 320.034027,92.891029 
	C320.834259,93.602509 321.978119,93.927528 322.968109,94.425583 
	C321.843048,94.969696 320.739594,95.913116 319.588501,95.975319 
	C317.146667,96.107277 314.680084,95.780151 312.125824,95.223236 
z"/>
<path fill="#E5F3EF" opacity="1.000000" stroke="none" 
	d="
M358.771851,429.811829 
	C358.143097,429.934784 357.832794,429.875427 357.522461,429.816101 
	C360.359406,424.172241 355.733521,420.636505 353.675934,416.404358 
	C352.607971,414.207703 351.242889,412.155487 350.012024,410.037994 
	C350.274384,409.621185 350.536743,409.204346 350.799103,408.787537 
	C351.834686,409.289246 353.301910,409.513855 353.832245,410.339966 
	C356.327881,414.227173 358.597137,418.261963 360.886505,422.278656 
	C362.581665,425.252808 361.633087,427.653809 358.771851,429.811829 
z"/>
<path fill="#E7F4F0" opacity="1.000000" stroke="none" 
	d="
M239.139008,451.933716 
	C239.501572,446.372681 239.844147,441.285919 240.200287,435.997894 
	C243.296005,437.560394 244.005157,446.283356 242.144073,455.895172 
	C241.963104,456.829773 240.807388,457.575623 239.119019,457.814575 
	C239.119019,456.012360 239.119019,454.210175 239.139008,451.933716 
z"/>
<path fill="#E9F5F2" opacity="1.000000" stroke="none" 
	d="
M362.987305,408.998596 
	C365.500671,412.905731 367.910553,416.458466 370.117554,420.133087 
	C370.549286,420.851990 370.194550,422.043243 370.202576,423.016632 
	C369.292419,422.642822 367.993378,422.532288 367.533752,421.853455 
	C363.939453,416.544647 360.506317,411.126770 356.905304,405.559906 
	C361.385071,402.572418 360.970215,407.645416 362.987305,408.998596 
z"/>
<path fill="#E9F5F2" opacity="1.000000" stroke="none" 
	d="
M228.474152,38.253716 
	C232.328766,37.163025 235.934113,36.364929 240.258469,35.407677 
	C237.690155,43.472832 231.814682,41.659199 226.167694,42.104069 
	C227.020325,40.629501 227.622604,39.587910 228.474152,38.253716 
z"/>
<path fill="#E9F5F2" opacity="1.000000" stroke="none" 
	d="
M156.030365,54.145546 
	C157.145111,53.800533 157.903717,53.576889 158.707916,53.339806 
	C158.138916,59.592690 157.404251,60.202766 147.810440,62.501091 
	C147.197540,56.657925 151.869217,55.875458 156.030365,54.145546 
z"/>
<path fill="#EDF7F4" opacity="1.000000" stroke="none" 
	d="
M325.998962,438.015961 
	C324.889160,435.042633 323.881897,432.436035 322.874664,429.829407 
	C323.304474,429.457458 323.734314,429.085480 324.164124,428.713501 
	C325.124725,429.743561 326.312744,430.641479 327.002563,431.828857 
	C328.937592,435.159576 328.414612,440.323822 335.366150,440.625244 
	C331.154694,442.391846 328.217773,443.623779 325.408234,444.802307 
	C325.632843,442.722412 325.867157,440.552521 325.998962,438.015961 
z"/>
<path fill="#EDF7F4" opacity="1.000000" stroke="none" 
	d="
M373.742798,64.252090 
	C373.641632,68.221870 370.710876,68.034058 368.349609,67.393555 
	C365.537811,66.630836 362.960419,65.004051 360.291016,63.756081 
	C364.965424,58.671818 369.137115,62.410355 373.742798,64.252090 
z"/>
<path fill="#E5F3EF" opacity="1.000000" stroke="none" 
	d="
M384.593262,86.454567 
	C385.904938,85.374481 387.655884,83.775017 388.745026,84.141647 
	C390.190338,84.628166 391.118927,86.649475 393.059967,88.946823 
	C389.215820,88.691093 386.004700,91.911331 384.593262,86.454567 
z"/>
<path fill="#E5F3EF" opacity="1.000000" stroke="none" 
	d="
M301.011414,44.276009 
	C302.147247,42.555206 303.466095,41.123241 305.036072,39.418587 
	C306.641541,41.383492 307.650970,42.618893 308.999298,44.269100 
	C306.121765,45.532223 303.932190,48.790134 301.011414,44.276009 
z"/>
<path fill="#F4FAF8" opacity="1.000000" stroke="none" 
	d="
M396.375824,125.249672 
	C392.148071,125.881950 390.281708,124.439316 391.019440,120.173813 
	C392.738556,120.173813 394.524536,120.173813 397.137451,120.173813 
	C397.009399,121.866325 396.882812,123.539177 396.375824,125.249672 
z"/>
<path fill="#E5F3EF" opacity="1.000000" stroke="none" 
	d="
M60.036087,111.691635 
	C58.279537,111.258980 56.781361,110.568596 55.283180,109.878212 
	C56.352081,108.899551 57.505119,107.025909 58.473457,107.116951 
	C60.967297,107.351402 61.675842,109.140015 60.036087,111.691635 
z"/>
<path fill="#E7F4F0" opacity="1.000000" stroke="none" 
	d="
M64.778351,107.028358 
	C63.425354,105.822441 62.443161,104.535942 61.460964,103.249451 
	C62.872849,102.869408 64.284737,102.489372 65.696625,102.109329 
	C65.514137,103.722153 65.331642,105.334969 64.778351,107.028358 
z"/>
<path fill="#F4FAF8" opacity="1.000000" stroke="none" 
	d="
M248.280319,69.827744 
	C248.344711,68.855759 248.693771,67.891045 249.042831,66.926331 
	C249.345673,67.428062 249.648529,67.929787 249.969040,68.734787 
	C249.512787,69.303719 249.038895,69.569359 248.280319,69.827744 
z"/>
<path fill="#F6FBFA" opacity="1.000000" stroke="none" 
	d="
M413.143250,129.217560 
	C413.444061,128.717484 413.911957,128.368347 414.379852,128.019226 
	C414.343414,128.573502 414.307007,129.127777 414.091217,129.860168 
	C413.724976,129.802795 413.524445,129.579544 413.143250,129.217560 
z"/>
<path fill="#F6FBFA" opacity="1.000000" stroke="none" 
	d="
M386.886139,93.649445 
	C386.363586,93.959534 385.766998,93.918907 384.722778,93.829224 
	C385.120758,93.619675 385.966461,93.459206 386.886139,93.649445 
z"/>
<path fill="#F6FBFA" opacity="1.000000" stroke="none" 
	d="
M445.283813,113.164642 
	C445.104767,113.275421 445.041016,112.835091 445.018646,112.613770 
	C445.151825,112.612915 445.307343,112.833389 445.283813,113.164642 
z"/>
<path fill="#0D8C69" opacity="1.000000" stroke="none" 
	d="
M274.932220,384.022766 
	C195.575241,397.453491 129.094940,343.226013 117.803902,273.830261 
	C113.011993,244.378799 116.973007,216.241867 130.490143,189.507202 
	C131.985748,186.549133 133.582733,185.537582 136.975327,185.805206 
	C170.165237,188.423355 197.395599,203.114090 219.864197,227.011871 
	C226.322403,233.880814 231.995285,241.625824 237.156372,249.537888 
	C242.308975,257.436951 246.368866,266.048798 251.248734,274.971527 
	C251.887039,273.546631 252.500687,272.182709 253.109589,270.816681 
	C265.924805,242.067154 284.970459,218.604156 312.266632,202.508896 
	C328.640289,192.854111 346.310059,186.768387 365.535492,185.765762 
	C368.563110,185.607864 369.893280,186.583191 371.233185,189.116913 
	C383.001617,211.370483 386.751434,235.173782 385.579193,260.054108 
	C382.958893,315.666931 341.497162,369.320801 280.234924,382.925476 
	C278.612671,383.285736 276.986847,383.630096 274.932220,384.022766 
M278.518646,357.537384 
	C343.478333,340.532166 376.671448,270.945190 353.856628,212.706818 
	C328.125732,218.550079 307.788910,232.714600 292.063049,253.520142 
	C272.371399,279.572571 263.322144,309.174744 263.629791,342.972992 
	C279.320068,332.039490 292.660187,320.288147 303.815582,306.415070 
	C314.873138,292.663635 324.890839,278.076050 334.692291,264.768127 
	C334.712067,264.695251 334.454956,265.956299 334.030060,267.158020 
	C325.707642,290.695618 314.308777,312.623627 298.997772,332.366364 
	C292.391815,340.884460 285.027313,348.814301 277.495667,357.145721 
	C277.573456,357.333618 277.651245,357.521545 277.729004,357.709473 
	C277.844757,357.657074 278.064911,357.585999 278.059448,357.555359 
	C278.021362,357.342926 277.936340,357.138885 278.518646,357.537384 
M235.768524,313.897980 
	C234.191055,307.614258 233.018356,301.195190 230.969803,295.069000 
	C218.525940,257.856079 196.246445,229.505875 158.313354,215.559753 
	C154.962097,214.327652 151.417709,213.620895 148.038116,212.690796 
	C122.569214,279.967224 169.224991,346.549316 223.731812,356.844025 
	C197.046448,329.813873 178.340073,298.874176 167.231461,263.389252 
	C185.059647,294.698425 208.001755,321.323944 237.170197,342.381989 
	C237.657211,342.193756 238.144241,342.005524 238.631271,341.817291 
	C237.724640,332.795685 236.818024,323.774078 235.768524,313.897980 
z"/>
<path fill="#F9A82D" opacity="1.000000" stroke="none" 
	d="
M214.920227,146.863220 
	C197.131638,153.214600 182.145157,163.094299 169.561935,176.675613 
	C168.510437,177.810516 166.424896,178.989609 165.115204,178.718887 
	C157.179794,177.078674 149.330276,175.022980 140.525558,172.880692 
	C165.402161,139.367661 198.043106,119.555161 239.477127,116.383057 
	C290.097168,112.507698 330.438293,132.353729 361.432251,172.867371 
	C352.636841,175.007629 344.517059,177.108078 336.318878,178.836746 
	C335.161835,179.080719 333.308380,177.804703 332.306549,176.736023 
	C315.493469,158.801422 295.201294,147.106094 270.958160,142.664413 
	C252.092270,139.207916 233.493027,140.497055 214.920227,146.863220 
z"/>
<path fill="#F9A82D" opacity="1.000000" stroke="none" 
	d="
M263.865173,178.978912 
	C273.377075,185.559616 276.954803,194.466461 274.674011,205.216965 
	C272.544128,215.256180 265.741913,221.624573 255.800690,223.617477 
	C245.872879,225.607681 237.378464,222.243164 231.197693,214.018326 
	C224.758682,205.449860 225.228317,192.560852 232.086304,184.349869 
	C240.085266,174.772797 251.465118,172.759140 263.865173,178.978912 
z"/>
<path fill="#1C9373" opacity="1.000000" stroke="none" 
	d="
M361.933960,77.295006 
	C363.803741,80.553215 362.668915,81.750229 359.694733,80.923531 
	C357.690216,80.366348 355.905914,79.016792 354.023102,78.021698 
	C354.219696,77.280167 354.416260,76.538643 354.612823,75.797112 
	C356.977142,76.191803 359.341431,76.586487 361.933960,77.295006 
z"/>
<path fill="#1C9373" opacity="1.000000" stroke="none" 
	d="
M402.173706,110.929649 
	C400.996704,110.008636 400.112061,109.285851 399.159729,108.507782 
	C404.982758,106.189545 407.312164,107.874519 406.540863,114.017853 
	C405.099457,112.995590 403.782745,112.061737 402.173706,110.929649 
z"/>
<path fill="#F5FAF9" opacity="1.000000" stroke="none" 
	d="
M171.839127,76.948372 
	C171.997787,76.573997 172.169785,76.368858 172.341797,76.163712 
	C172.474472,76.358421 172.607147,76.553123 172.739822,76.747826 
	C172.444031,76.871086 172.148254,76.994347 171.839127,76.948372 
z"/>
<path fill="#1C9373" opacity="1.000000" stroke="none" 
	d="
M233.982742,57.618416 
	C231.615356,57.754459 229.617905,57.754459 227.620468,57.754459 
	C227.429626,57.080208 227.238785,56.405952 227.047943,55.731701 
	C228.966690,54.793991 230.811798,53.484810 232.836853,53.083416 
	C233.776291,52.897209 235.065842,54.477345 236.196686,55.256721 
	C235.582016,55.998600 234.967361,56.740486 233.982742,57.618416 
z"/>
<path fill="#16906F" opacity="1.000000" stroke="none" 
	d="
M78.614426,131.546631 
	C72.939476,130.509598 71.141151,127.283684 71.483955,119.527443 
	C76.643135,118.326317 81.463707,119.922310 82.923889,123.586830 
	C84.494347,127.528061 82.331345,129.832458 78.614426,131.546631 
z"/>
<path fill="#148F6D" opacity="1.000000" stroke="none" 
	d="
M306.565857,437.222656 
	C311.002106,435.782745 313.915344,436.915405 314.926025,441.204102 
	C315.965546,445.615265 313.394196,447.791107 305.525116,449.230927 
	C304.043213,445.195343 301.421143,441.209534 306.565857,437.222656 
z"/>
<path fill="#148F6D" opacity="1.000000" stroke="none" 
	d="
M168.787018,439.383087 
	C165.868088,438.673157 163.360291,437.897125 160.522003,437.018799 
	C162.159775,432.839478 162.390335,427.853485 167.841919,428.016541 
	C169.880066,428.077484 172.906937,430.310760 173.601074,432.233124 
	C174.791016,435.528473 172.882904,438.310913 168.787018,439.383087 
z"/>
<path fill="#16906F" opacity="1.000000" stroke="none" 
	d="
M338.158203,427.940308 
	C339.454071,426.312805 340.766785,424.071533 342.043823,424.091705 
	C343.586487,424.116058 345.725311,425.750458 346.458374,427.249390 
	C347.285553,428.940735 347.548462,431.669006 346.688293,433.153168 
	C346.128571,434.118896 342.622833,434.461304 341.346680,433.650726 
	C339.786713,432.659882 339.178833,430.170074 338.158203,427.940308 
z"/>
<path fill="#148F6D" opacity="1.000000" stroke="none" 
	d="
M288.394531,443.604950 
	C289.003601,444.839539 289.791199,445.850220 289.625885,446.668396 
	C289.201508,448.768555 288.722290,451.073425 287.466278,452.666992 
	C287.053741,453.190491 283.023834,452.181458 282.679413,451.176849 
	C281.859131,448.784058 282.250610,445.975830 282.152588,443.335449 
	C284.148071,443.321411 286.143524,443.307404 288.394531,443.604950 
z"/>
<path fill="#1C9373" opacity="1.000000" stroke="none" 
	d="
M265.539490,454.511230 
	C262.501801,457.064941 260.289734,456.051758 258.884918,453.285004 
	C257.350128,450.262238 257.189026,446.843140 260.493317,445.097565 
	C261.654816,444.483917 265.169586,445.877014 265.748016,447.180176 
	C266.619049,449.142578 265.853760,451.831268 265.539490,454.511230 
z"/>
<path fill="#FDFEFE" opacity="1.000000" stroke="none" 
	d="
M278.007416,357.011383 
	C285.027313,348.814301 292.391815,340.884460 298.997772,332.366364 
	C314.308777,312.623627 325.707642,290.695618 334.030060,267.158020 
	C334.454956,265.956299 334.712067,264.695251 334.692291,264.768127 
	C324.890839,278.076050 314.873138,292.663635 303.815582,306.415070 
	C292.660187,320.288147 279.320068,332.039490 263.629791,342.972992 
	C263.322144,309.174744 272.371399,279.572571 292.063049,253.520142 
	C307.788910,232.714600 328.125732,218.550079 353.856628,212.706818 
	C376.671448,270.945190 343.478333,340.532166 278.229034,357.252319 
	C277.939423,356.967285 278.007416,357.011383 278.007416,357.011383 
z"/>
<path fill="#FDFEFE" opacity="1.000000" stroke="none" 
	d="
M235.839966,314.325226 
	C236.818024,323.774078 237.724640,332.795685 238.631271,341.817291 
	C238.144241,342.005524 237.657211,342.193756 237.170197,342.381989 
	C208.001755,321.323944 185.059647,294.698425 167.231461,263.389252 
	C178.340073,298.874176 197.046448,329.813873 223.731812,356.844025 
	C169.224991,346.549316 122.569214,279.967224 148.038116,212.690796 
	C151.417709,213.620895 154.962097,214.327652 158.313354,215.559753 
	C196.246445,229.505875 218.525940,257.856079 230.969803,295.069000 
	C233.018356,301.195190 234.191055,307.614258 235.839966,314.325226 
z"/>
<path fill="#FDFEFE" opacity="1.000000" stroke="none" 
	d="
M277.902893,356.949707 
	C277.936340,357.138885 278.021362,357.342926 278.059448,357.555359 
	C278.064911,357.585999 277.844757,357.657074 277.729004,357.709473 
	C277.651245,357.521545 277.573456,357.333618 277.751526,357.078552 
	C278.007416,357.011383 277.939423,356.967285 277.902893,356.949707 
z"/>
</svg>